:SAMPLES-PER-SECOND 30
:FULLY-SPECIFIED
:DEGREES
47
root  80.3184 37.8585 -6.10137 145.564 -83.3751 -145.034
RightUpLeg  -9.77323 -11.457 1.34421
RightLeg  31.8232 -4.54157 -3.28642
RightFoot  -23.1327 0.125828 2.73461
RightToes  4.07452e-010 0 -3.6325e-017
Spine  14.5253 -1.42271 9.82111
Spine1  4.11071 -0.935326 3.256
HEad  -23.3263 7.34287 -11.2785
LeftShoulder1  9.11835 -12.7338 -49.0246
LeftArm  -5.50607 14.2268 -29.5309
LeftForeArm  46.8265 -67.5534 -22.5412
LeftHand  -0.244104 0.0205437 5.32207
RightShoulder  6.5036 10.0595 41.7098
RightArm  -7.24813 -20.2565 31.4451
RightForeArm  13.083 67.695 28.0854
RightHand  -0.0426962 -5.14781 -13.3839
LeftUpLeg  -17.8303 9.22046 8.54389
LeftLeg  48.119 11.1163 13.3499
LeftFoot  -18.0102 -0.240426 -5.96847
LeftToes  1.0186e-010 1.09309e-010 2.97394e-011
48
root  79.7967 37.4569 -6.26788 144.124 -83.0294 -144.155
RightUpLeg  -9.52843 -11.0038 1.60048
RightLeg  34.7622 -4.58916 -3.67777
RightFoot  -25.4864 0.176597 2.80957
RightToes  4.07452e-010 0 -3.6325e-017
Spine  16.5626 -1.18138 11.2725
Spine1  3.79999 0.0898091 1.70952
HEad  -25.3503 6.42995 -10.81
LeftShoulder1  9.25835 -12.7434 -49.7476
LeftArm  -6.29511 17.1008 -28.4777
LeftForeArm  60.6771 -74.9 -35.9233
LeftHand  -0.244104 0.0205437 5.32207
RightShoulder  6.59629 9.90447 42.865
RightArm  -6.50119 -17.2493 31.0004
RightForeArm  35.1261 76.1083 50.8788
RightHand  0.103136 -6.48724 -12.9582
LeftUpLeg  -21.3037 9.48958 8.31077
LeftLeg  55.0793 9.18638 14.2782
LeftFoot  -18.0334 -0.210155 -5.43806
LeftToes  1.0186e-010 1.09309e-010 2.97394e-011
49
root  79.0452 37.3224 -6.41235 143.91 -83.1205 -143.473
RightUpLeg  -8.73296 -11.3051 1.47228
RightLeg  35.0307 -4.31604 -3.51136
RightFoot  -26.737 0.257675 3.25106
RightToes  4.07452e-010 0 -3.6325e-017
Spine  16.4476 -0.915617 13.0393
Spine1  4.02425 1.19856 -0.940199
HEad  -27.4596 5.51356 -9.95949
LeftShoulder1  9.18973 -12.5607 -49.9369
LeftArm  -6.45752 21.4964 -27.4182
LeftForeArm  89.2237 -80.0756 -64.1984
LeftHand  -0.244104 0.0205437 5.32207
RightShoulder  6.56215 9.75841 43.1268
RightArm  -5.73905 -14.4611 32.139
RightForeArm  80.2253 79.2191 94.8525
RightHand  0.198839 -7.62022 -11.8513
LeftUpLeg  -24.7599 9.80598 7.25808
LeftLeg  58.4859 7.37837 13.299
LeftFoot  -17.9603 -0.195432 -5.23781
LeftToes  1.0186e-010 1.09309e-010 2.97394e-011
50
root  78.0351 37.5725 -6.56377 149.621 -83.7899 -148.106
RightUpLeg  -6.61055 -12.536 0.27016
RightLeg  31.7721 -3.52154 -2.62015
RightFoot  -26.308 0.289042 3.55513
RightToes  4.07452e-010 0 -3.6325e-017
Spine  14.4566 -0.181684 13.9961
Spine1  5.37563 2.56236 -4.03628
HEad  -28.6763 5.46423 -8.8409
LeftShoulder1  8.95878 -12.2754 -49.5621
LeftArm  -5.79407 26.3272 -26.4742
LeftForeArm  127.548 -80.7628 -103.79
LeftHand  -0.244104 0.0205437 5.32207
RightShoulder  6.57011 9.86846 42.8063
RightArm  -4.96155 -12.6646 33.7961
RightForeArm  118.252 76.3362 129.753
RightHand  0.290521 -9.53784 -9.18182
LeftUpLeg  -27.2004 10.4089 5.04892
LeftLeg  57.9675 6.62623 11.8033
LeftFoot  -17.9353 -0.202369 -5.37562
LeftToes  1.0186e-010 1.09309e-010 2.97394e-011
51
root  76.7914 38.1499 -6.74826 166.029 -84.6676 -162.949
RightUpLeg  -3.32955 -14.3355 -2.03914
RightLeg  25.4754 -1.99991 -1.29311
RightFoot  -23.9951 0.262986 3.83493
RightToes  4.07452e-010 0 -3.6325e-017
Spine  11.6897 1.3429 13.2583
Spine1  6.50474 4.37693 -6.73737
HEad  -28.2331 4.29074 -6.99657
LeftShoulder1  8.73684 -12.115 -48.8302
LeftArm  -4.05429 31.2481 -25.3019
LeftForeArm  149.513 -78.4804 -128.333
LeftHand  -0.244104 0.0205437 5.32207
RightShoulder  6.57391 9.99489 42.4049
RightArm  -3.59374 -12.8906 34.757
RightForeArm  135.12 72.3468 144.411
RightHand  0.290043 -10.9005 -7.00136
LeftUpLeg  -28.3219 11.8375 1.73078
LeftLeg  53.7413 6.5302 9.96331
LeftFoot  -17.7418 -0.213295 -5.71324
LeftToes  1.0186e-010 1.09309e-010 2.97394e-011
52
root  75.414 38.8441 -6.92125 -168.779 -84.9227 173.941
RightUpLeg  -0.0842455 -15.1364 -4.84095
RightLeg  18.2366 -0.989693 0.123762
RightFoot  -19.5682 0.211027 4.84936
RightToes  4.07452e-010 0 -3.6325e-017
Spine  9.06082 3.19229 11.3818
Spine1  6.05841 6.34304 -9.1829
HEad  -26.057 2.54753 -4.787
LeftShoulder1  8.53755 -12.1267 -47.6698
LeftArm  -1.8994 36.5965 -23.9746
LeftForeArm  160.047 -75.5455 -141.147
LeftHand  -0.244104 0.0205437 5.32207
RightShoulder  6.45684 9.90552 41.893
RightArm  -0.701053 -15.0929 34.8724
RightForeArm  141.296 69.6578 150.055
RightHand  0.243733 -10.8177 -6.2011
LeftUpLeg  -28.55 13.7083 -2.22192
LeftLeg  46.9199 6.11605 7.40593
LeftFoot  -17.5058 -0.214003 -5.91689
LeftToes  1.0186e-010 1.09309e-010 2.97394e-011
53
root  74.0269 39.4464 -6.9902 -146.544 -84.6574 153.83
RightUpLeg  2.05814 -13.5352 -7.48568
RightLeg  13.0484 -2.63634 1.47345
RightFoot  -14.1784 0.0749248 7.06076
RightToes  4.07452e-010 0 -3.6325e-017
Spine  6.92985 4.37166 9.87291
Spine1  4.87271 7.75366 -11.9118
HEad  -23.2123 1.1082 -2.66839
LeftShoulder1  8.33981 -12.1907 -46.3494
LeftArm  -0.877449 41.7263 -23.0003
LeftForeArm  166.379 -72.3171 -149.281
LeftHand  -0.244104 0.0205437 5.32207
RightShoulder  6.26982 9.75104 41.0987
RightArm  3.70785 -17.4326 34.5527
RightForeArm  144.031 68.8728 151.531
RightHand  0.183555 -10.6759 -5.12302
LeftUpLeg  -28.2643 14.0919 -5.90383
LeftLeg  39.671 5.38445 5.13785
LeftFoot  -17.7818 -0.228178 -5.94282
LeftToes  1.0186e-010 1.09309e-010 2.97394e-011
54
root  72.7065 39.8442 -6.94242 -130.379 -84.377 138.726
RightUpLeg  2.93053 -15.202 -9.8871
RightLeg  12.5873 -1.20618 1.74394
RightFoot  -9.95592 -0.184234 9.78376
RightToes  4.07452e-010 0 -3.6325e-017
Spine  6.10318 4.58056 9.20244
Spine1  4.39537 8.40892 -14.6052
HEad  -21.7489 0.124489 -1.26997
LeftShoulder1  8.32443 -12.3168 -45.8806
LeftArm  -1.89332 44.9296 -22.5983
LeftForeArm  169.06 -69.4286 -154.058
LeftHand  -0.244104 0.0205437 5.32207
RightShoulder  6.19387 9.80551 40.3796
RightArm  8.31392 -18.3672 33.7493
RightForeArm  145.731 70.0276 150.032
RightHand  0.108995 -10.5782 -3.54971
LeftUpLeg  -26.9138 12.3045 -8.48385
LeftLeg  33.7818 5.51688 4.30401
LeftFoot  -18.157 -0.255585 -6.12199
LeftToes  1.0186e-010 1.09309e-010 2.97394e-011
55
root  71.4698 39.9525 -6.85402 -125.582 -84.014 133.713
RightUpLeg  2.01441 -17.0669 -11.2614
RightLeg  17.772 1.98792 0.792002
RightFoot  -7.2386 -0.461173 11.5326
RightToes  4.07452e-010 0 -3.6325e-017
Spine  6.92033 4.48656 9.01628
Spine1  4.38486 8.76938 -16.5067
HEad  -21.8524 -0.610598 -0.6646
LeftShoulder1  8.57088 -12.6007 -46.4231
LeftArm  -4.35794 45.7333 -23.0764
LeftForeArm  170.121 -67.6482 -156.323
LeftHand  -0.244104 0.0205437 5.32207
RightShoulder  6.33266 10.1829 40.1233
RightArm  12.0268 -18.7649 32.2777
RightForeArm  143.591 72.7712 144.766
RightHand  0.050528 -9.03573 -3.04883
LeftUpLeg  -24.3329 11.0793 -9.66001
LeftLeg  29.4399 6.26935 4.16879
LeftFoot  -17.2063 -0.221075 -6.31705
LeftToes  1.0186e-010 1.09309e-010 2.97394e-011
56
root  70.2699 39.6938 -6.77487 -133.154 -83.3478 140.204
RightUpLeg  -0.997941 -11.851 -11.2812
RightLeg  27.7709 0.13633 -0.223425
RightFoot  -4.71912 -0.655815 10.8428
RightToes  4.07452e-010 0 -3.6325e-017
Spine  9.02999 4.55826 8.41155
Spine1  3.70884 8.93531 -16.951
HEad  -21.9175 -0.657293 -0.327491
LeftShoulder1  8.80035 -12.9219 -46.7456
LeftArm  -7.24357 45.4353 -25.0047
LeftForeArm  172.598 -66.5905 -157.718
LeftHand  -0.244104 0.0205437 5.32207
RightShoulder  6.5945 10.7489 40.1234
RightArm  14.4964 -20.1694 30.7303
RightForeArm  132.455 76.3789 132.674
RightHand  0.016138 -7.20745 -3.29563
LeftUpLeg  -20.5958 12.7654 -9.93747
LeftLeg  26.0131 6.18385 3.62325
LeftFoot  -15.1872 -0.0924281 -5.31905
LeftToes  1.0186e-010 1.09309e-010 2.97394e-011
57
root  69.0514 39.0938 -6.69238 -142.029 -82.5222 148.14
RightUpLeg  -5.8911 -6.43078 -10.9307
RightLeg  40.7653 -2.37324 -2.53046
RightFoot  -2.08581 -0.661444 8.00042
RightToes  4.07452e-010 0 -3.6325e-017
Spine  10.5032 4.49197 6.82621
Spine1  3.17049 8.48595 -15.5928
HEad  -21.8304 0.405759 0.0282067
LeftShoulder1  8.79926 -12.9883 -46.5455
LeftArm  -9.72116 44.333 -27.4423
LeftForeArm  175.371 -65.5615 -159.023
LeftHand  -0.244104 0.0205437 5.32207
RightShoulder  6.80497 11.1398 40.3129
RightArm  14.7294 -22.0707 30.2884
RightForeArm  103.333 79.5153 103.891
RightHand  0.0218035 -7.18452 -3.41912
LeftUpLeg  -17.2413 14.9685 -9.93945
LeftLeg  24.6909 5.88889 3.29058
LeftFoot  -15.0644 0.0258532 -2.30129
LeftToes  1.0186e-010 1.09309e-010 2.97394e-011
58
root  67.8431 38.3492 -6.63788 -138.76 -82.086 144.166
RightUpLeg  -11.6452 -3.25215 -11.6126
RightLeg  54.439 -4.29204 -6.86497
RightFoot  -0.604242 -0.455355 4.76609
RightToes  4.07452e-010 0 -3.6325e-017
Spine  11.2356 3.76416 3.27425
Spine1  3.61787 6.89439 -12.3648
HEad  -23.2371 1.68636 0.167653
LeftShoulder1  8.78079 -12.7322 -47.197
LeftArm  -10.3242 40.6002 -27.3961
LeftForeArm  174.986 -65.2915 -159.228
LeftHand  -0.244104 0.0205437 5.32207
RightShoulder  6.97039 11.1142 41.4573
RightArm  10.8101 -23.3961 31.3094
RightForeArm  57.4403 77.9143 57.0965
RightHand  0.0330476 -6.86756 -5.41077
LeftUpLeg  -15.3452 14.1239 -10.7208
LeftLeg  26.9313 7.11715 4.28346
LeftFoot  -18.5286 0.171806 0.941339
LeftToes  1.0186e-010 1.09309e-010 2.97394e-011
59
root  66.6719 37.7159 -6.6727 -124.894 -82.1069 129.546
RightUpLeg  -17.3675 -1.75725 -12.9904
RightLeg  66.1805 -4.33727 -11.1977
RightFoot  -0.925966 -0.206265 2.16077
RightToes  4.07452e-010 0 -3.6325e-017
Spine  12.5586 2.66155 -1.72691
Spine1  4.24875 4.479 -7.98489
HEad  -26.1373 1.90268 -0.173469
LeftShoulder1  9.01732 -12.5022 -49.1774
LeftArm  -8.39686 33.3461 -23.995
LeftForeArm  171.996 -66.7698 -157.442
LeftHand  -0.244104 0.0205437 5.32207
RightShoulder  7.17969 10.8022 43.7814
RightArm  2.65902 -25.465 32.5395
RightForeArm  32.1744 71.6495 32.236
RightHand  -0.190272 -3.86031 -11.6327
LeftUpLeg  -14.2347 11.8954 -11.9917
LeftLeg  31.0542 8.24292 5.66558
LeftFoot  -23.1742 0.306685 1.70047
LeftToes  1.0186e-010 1.09309e-010 2.97394e-011
60
root  65.4256 37.3676 -6.77688 -113.909 -82.4281 118.069
RightUpLeg  -22.9912 -0.624591 -13.1067
RightLeg  73.7788 -3.0496 -12.7535
RightFoot  -2.672 -0.0648012 0.626079
RightToes  4.07452e-010 0 -3.6325e-017
Spine  14.1483 1.77252 -5.78158
Spine1  4.2118 2.15423 -3.70533
HEad  -28.1841 1.60659 -0.990951
LeftShoulder1  9.34155 -12.5725 -50.7188
LeftArm  -5.47805 25.1877 -20.6971
LeftForeArm  170.788 -68.735 -155.146
LeftHand  -0.244104 0.0205437 5.32207
RightShoulder  7.21053 10.3552 45.4587
RightArm  -4.56012 -30.5491 32.4432
RightForeArm  20.0815 69.0564 29.0703
RightHand  -0.98055 0.100993 -20.4952
LeftUpLeg  -12.4641 11.6691 -11.8964
LeftLeg  33.3118 7.24106 5.46287
LeftFoot  -26.0307 0.208168 0.390767
LeftToes  1.0186e-010 1.09309e-010 2.97394e-011
